<svg xmlns="http://www.w3.org/2000/svg" class="diagram-root" style="background: #f5f6f6" xmlns:xlink="http://www.w3.org/1999/xlink"><style>.diagram-root { font-family: "Helvetica Neue", sans-serif; font-size: 12px; } .t { overflow: visible; } .t-bg { y: 40; fill: #fff;   } .th { fill: #005aa0;   } .tht { fill: #fff; font-size: 14px;  } .tf { fill: #323c46; overflow: visible; } .tf.pk { fill: #005aa0; font-weight: bold; } .tf.fk { font-weight: bold; } .ty { fill: #adb1b5; font-weight: normal; text-anchor: end; } .r { fill: transparent; stroke: #c3c3c3; stroke-width: 1; } .l { stroke: 1; } .i { fill: #c2c7ce; stroke: #c2c7ce; } .i.ix { fill: #afb3b6; stroke: #000; } .fa { fill: transparent; overflow: visible; } .fa .bg.hover { fill: #f7f7f7; } .c { cy: 12; r: 4; stroke: #d2d2dc; fill: #d2d2dc; } .hr { fill: transparent; stroke: #323c46; stroke-opacity: 0.035; stroke-width: 13; } .dc { stroke: #fa5a3c; fill: #fa5a3c; } .x { stroke: white; stroke-width: 1; } .hl .th { fill: #1b9bff; } .hl .tht {  } .fhl .bg { fill: #e7f4ff; } .fhls .bg {  } .r.hl { stroke: #1b9bff; } .dim { opacity: 0.25; }</style><g class="drawing-wrapper" transform="translate(-8 -1) scale(1)"><g class="rs"><path class="r" id="h4164271708" d="M 256.35 446 m -1 0 a 1 1 0 1 0 2 0 a 1 1 0 1 0 -2 0 M 256.35 446 m -0.5 0 a 0.5 0.5 0 1 0 1 0 a 0.5 0.5 0 1 0 -1 0 M 256.35 446 L 256.35 446 L 268.35 446 M 256.35 452 m -1 0 a 1 1 0 1 0 2 0 a 1 1 0 1 0 -2 0 M 256.35 452 m -0.5 0 a 0.5 0.5 0 1 0 1 0 a 0.5 0.5 0 1 0 -1 0 M 256.35 452 L 256.35 452 L 263.35 446 L 256.35 440 M 256.35 440 m -1 0 a 1 1 0 1 0 2 0 a 1 1 0 1 0 -2 0 M 256.35 440 m -0.5 0 a 0.5 0.5 0 1 0 1 0 a 0.5 0.5 0 1 0 -1 0 M 268.35 446 Q 303.02 446 337.68 584.5 T 407 723 M 419 723 m -1 0 a 1 1 0 1 0 2 0 a 1 1 0 1 0 -2 0 M 419 723 m -0.5 0 a 0.5 0.5 0 1 0 1 0 a 0.5 0.5 0 1 0 -1 0 M 419 723 L 419 723 L 407 723 M 413 729 L 413 729 L 413 717"/><path class="r" id="h1607168654" d="M 771.35 428 m -1 0 a 1 1 0 1 0 2 0 a 1 1 0 1 0 -2 0 M 771.35 428 m -0.5 0 a 0.5 0.5 0 1 0 1 0 a 0.5 0.5 0 1 0 -1 0 M 771.35 428 L 771.35 428 L 783.35 428 M 771.35 434 m -1 0 a 1 1 0 1 0 2 0 a 1 1 0 1 0 -2 0 M 771.35 434 m -0.5 0 a 0.5 0.5 0 1 0 1 0 a 0.5 0.5 0 1 0 -1 0 M 771.35 434 L 771.35 434 L 778.35 428 L 771.35 422 M 771.35 422 m -1 0 a 1 1 0 1 0 2 0 a 1 1 0 1 0 -2 0 M 771.35 422 m -0.5 0 a 0.5 0.5 0 1 0 1 0 a 0.5 0.5 0 1 0 -1 0 M 783.35 428 Q 813.77 428 844.18 382 T 905 336 M 917 336 m -1 0 a 1 1 0 1 0 2 0 a 1 1 0 1 0 -2 0 M 917 336 m -0.5 0 a 0.5 0.5 0 1 0 1 0 a 0.5 0.5 0 1 0 -1 0 M 917 336 L 917 336 L 905 336 M 911 342 L 911 342 L 911 330"/><path class="r" id="h1397587031" d="M 547.03 100 m -1 0 a 1 1 0 1 0 2 0 a 1 1 0 1 0 -2 0 M 547.03 100 m -0.5 0 a 0.5 0.5 0 1 0 1 0 a 0.5 0.5 0 1 0 -1 0 M 547.03 100 L 547.03 100 L 559.03 100 M 547.03 106 m -1 0 a 1 1 0 1 0 2 0 a 1 1 0 1 0 -2 0 M 547.03 106 m -0.5 0 a 0.5 0.5 0 1 0 1 0 a 0.5 0.5 0 1 0 -1 0 M 547.03 106 L 547.03 106 L 554.03 100 L 547.03 94 M 547.03 94 m -1 0 a 1 1 0 1 0 2 0 a 1 1 0 1 0 -2 0 M 547.03 94 m -0.5 0 a 0.5 0.5 0 1 0 1 0 a 0.5 0.5 0 1 0 -1 0 M 559.03 100 Q 645.53 100 732.02 218 T 905 336 M 917 336 m -1 0 a 1 1 0 1 0 2 0 a 1 1 0 1 0 -2 0 M 917 336 m -0.5 0 a 0.5 0.5 0 1 0 1 0 a 0.5 0.5 0 1 0 -1 0 M 917 336 L 917 336 L 905 336 M 911 342 L 911 342 L 911 330"/><path class="r" id="h634767023" d="M 401 125 m -1 0 a 1 1 0 1 0 2 0 a 1 1 0 1 0 -2 0 M 401 125 m -0.5 0 a 0.5 0.5 0 1 0 1 0 a 0.5 0.5 0 1 0 -1 0 M 401 125 L 401 125 L 389 125 M 401 131 m -1 0 a 1 1 0 1 0 2 0 a 1 1 0 1 0 -2 0 M 401 131 m -0.5 0 a 0.5 0.5 0 1 0 1 0 a 0.5 0.5 0 1 0 -1 0 M 401 131 L 401 131 L 394 125 L 401 119 M 401 119 m -1 0 a 1 1 0 1 0 2 0 a 1 1 0 1 0 -2 0 M 401 119 m -0.5 0 a 0.5 0.5 0 1 0 1 0 a 0.5 0.5 0 1 0 -1 0 M 389 125 Q 358.84 125 328.68 285.5 T 268.35 446 M 256.35 446 m -1 0 a 1 1 0 1 0 2 0 a 1 1 0 1 0 -2 0 M 256.35 446 m -0.5 0 a 0.5 0.5 0 1 0 1 0 a 0.5 0.5 0 1 0 -1 0 M 256.35 446 L 256.35 446 L 268.35 446 M 262.35 452 L 262.35 452 L 262.35 440"/><path class="r" id="h2967012690" d="M 422 406 m -1 0 a 1 1 0 1 0 2 0 a 1 1 0 1 0 -2 0 M 422 406 m -0.5 0 a 0.5 0.5 0 1 0 1 0 a 0.5 0.5 0 1 0 -1 0 M 422 406 L 422 406 L 410 406 M 422 412 m -1 0 a 1 1 0 1 0 2 0 a 1 1 0 1 0 -2 0 M 422 412 m -0.5 0 a 0.5 0.5 0 1 0 1 0 a 0.5 0.5 0 1 0 -1 0 M 422 412 L 422 412 L 415 406 L 422 400 M 422 400 m -1 0 a 1 1 0 1 0 2 0 a 1 1 0 1 0 -2 0 M 422 400 m -0.5 0 a 0.5 0.5 0 1 0 1 0 a 0.5 0.5 0 1 0 -1 0 M 410 406 Q 374.59 406 339.18 426 T 268.35 446 M 256.35 446 m -1 0 a 1 1 0 1 0 2 0 a 1 1 0 1 0 -2 0 M 256.35 446 m -0.5 0 a 0.5 0.5 0 1 0 1 0 a 0.5 0.5 0 1 0 -1 0 M 256.35 446 L 256.35 446 L 268.35 446 M 262.35 452 L 262.35 452 L 262.35 440"/><path class="r" id="h875916973" d="M 419 723 m -1 0 a 1 1 0 1 0 2 0 a 1 1 0 1 0 -2 0 M 419 723 m -0.5 0 a 0.5 0.5 0 1 0 1 0 a 0.5 0.5 0 1 0 -1 0 M 419 723 L 419 723 L 407 723 M 419 729 m -1 0 a 1 1 0 1 0 2 0 a 1 1 0 1 0 -2 0 M 419 729 m -0.5 0 a 0.5 0.5 0 1 0 1 0 a 0.5 0.5 0 1 0 -1 0 M 419 729 L 419 729 L 412 723 L 419 717 M 419 717 m -1 0 a 1 1 0 1 0 2 0 a 1 1 0 1 0 -2 0 M 419 717 m -0.5 0 a 0.5 0.5 0 1 0 1 0 a 0.5 0.5 0 1 0 -1 0 M 407 723 C 357 723 355.2 406 410 406 M 422 406 m -1 0 a 1 1 0 1 0 2 0 a 1 1 0 1 0 -2 0 M 422 406 m -0.5 0 a 0.5 0.5 0 1 0 1 0 a 0.5 0.5 0 1 0 -1 0 M 422 406 L 422 406 L 410 406 M 416 412 L 416 412 L 416 400"/></g><g class="hrs"/><g class="ts"><svg class="t" id="h3299212598" x="125" y="389" width="131.35" height="175"><rect class="th" width="131.35" height="40"/><text class="tht" x="13" y="25">Employees</text><rect class="t-bg" y="40" width="131.35" height="135"/><text class="tf pk" x="13" y="61">emp_no<tspan class="ty" x="118.35">int</tspan></text><path class="i pk" transform="translate(85.68 48) scale(0.65)" d="M 7 14 A 2 2 0 0 1 5 12 A 2 2 0 0 1 7 10 A 2 2 0 0 1 9 12 A 2 2 0 0 1 7 14 M 12.65 10 C 11.83 7.67 9.61 6 7 6 A 6 6 0 0 0 1 12 A 6 6 0 0 0 7 18 C 9.61 18 11.83 16.33 12.65 14 H 17 V 18 H 21 V 14 H 23 V 10 H 12.65 Z"/><text class="tf" x="13" y="86">birth_date<tspan class="ty" x="118.35">string</tspan></text><text class="tf" x="13" y="111">first_name<tspan class="ty" x="118.35">string</tspan></text><text class="tf" x="13" y="136">last_name<tspan class="ty" x="118.35">string</tspan></text><text class="tf" x="13" y="161">gender<tspan class="ty" x="118.35">string</tspan></text></svg><svg class="t" id="h475896179" x="917" y="279" width="138.69" height="100"><rect class="th" width="138.69" height="40"/><text class="tht" x="13" y="25">departments</text><rect class="t-bg" y="40" width="138.69" height="60"/><text class="tf pk" x="13" y="61">dept_no<tspan class="ty" x="125.69">string</tspan></text><path class="i pk" transform="translate(76.35 48) scale(0.65)" d="M 7 14 A 2 2 0 0 1 5 12 A 2 2 0 0 1 7 10 A 2 2 0 0 1 9 12 A 2 2 0 0 1 7 14 M 12.65 10 C 11.83 7.67 9.61 6 7 6 A 6 6 0 0 0 1 12 A 6 6 0 0 0 7 18 C 9.61 18 11.83 16.33 12.65 14 H 17 V 18 H 21 V 14 H 23 V 10 H 12.65 Z"/><text class="tf" x="13" y="86">dept_name<tspan class="ty" x="125.69">string</tspan></text></svg><svg class="t" id="h1090417462" x="642" y="346" width="129.35" height="150"><rect class="th" width="129.35" height="40"/><text class="tht" x="13" y="25">dept_emp</text><rect class="t-bg" y="40" width="129.35" height="110"/><text class="tf pk" x="13" y="61">emp_no<tspan class="ty" x="116.35">int</tspan></text><path class="i pk" transform="translate(83.68 48) scale(0.65)" d="M 7 14 A 2 2 0 0 1 5 12 A 2 2 0 0 1 7 10 A 2 2 0 0 1 9 12 A 2 2 0 0 1 7 14 M 12.65 10 C 11.83 7.67 9.61 6 7 6 A 6 6 0 0 0 1 12 A 6 6 0 0 0 7 18 C 9.61 18 11.83 16.33 12.65 14 H 17 V 18 H 21 V 14 H 23 V 10 H 12.65 Z"/><text class="tf fk" x="13" y="86">dept_no<tspan class="ty" x="116.35">string</tspan></text><text class="tf" x="13" y="111">from_date<tspan class="ty" x="116.35">string</tspan></text><text class="tf" x="13" y="136">to_date<tspan class="ty" x="116.35">string</tspan></text></svg><svg class="t" id="h1676682957" x="401" y="43" width="146.03" height="150"><rect class="th" width="146.03" height="40"/><text class="tht" x="13" y="25">dept_manager</text><rect class="t-bg" y="40" width="146.03" height="110"/><text class="tf fk" x="13" y="61">dept_no<tspan class="ty" x="133.03">string</tspan></text><text class="tf pk" x="13" y="86">emp_no<tspan class="ty" x="133.03">integer</tspan></text><path class="i pk" transform="translate(76.35 73) scale(0.65)" d="M 7 14 A 2 2 0 0 1 5 12 A 2 2 0 0 1 7 10 A 2 2 0 0 1 9 12 A 2 2 0 0 1 7 14 M 12.65 10 C 11.83 7.67 9.61 6 7 6 A 6 6 0 0 0 1 12 A 6 6 0 0 0 7 18 C 9.61 18 11.83 16.33 12.65 14 H 17 V 18 H 21 V 14 H 23 V 10 H 12.65 Z"/><text class="tf" x="13" y="111">from_date<tspan class="ty" x="133.03">string</tspan></text><text class="tf" x="13" y="136">to_date<tspan class="ty" x="133.03">string</tspan></text></svg><svg class="t" id="h2472833127" x="422" y="349" width="146.03" height="125"><rect class="th" width="146.03" height="40"/><text class="tht" x="13" y="25">salaries</text><rect class="t-bg" y="40" width="146.03" height="85"/><text class="tf pk" x="13" y="61">emp_no<tspan class="ty" x="133.03">integer</tspan></text><path class="i pk" transform="translate(76.35 48) scale(0.65)" d="M 7 14 A 2 2 0 0 1 5 12 A 2 2 0 0 1 7 10 A 2 2 0 0 1 9 12 A 2 2 0 0 1 7 14 M 12.65 10 C 11.83 7.67 9.61 6 7 6 A 6 6 0 0 0 1 12 A 6 6 0 0 0 7 18 C 9.61 18 11.83 16.33 12.65 14 H 17 V 18 H 21 V 14 H 23 V 10 H 12.65 Z"/><text class="tf" x="13" y="86">salary<tspan class="ty" x="133.03">int</tspan></text><text class="tf" x="13" y="111">from_date<tspan class="ty" x="133.03">string</tspan></text></svg><svg class="t" id="h311790747" x="419" y="666" width="146.03" height="150"><rect class="th" width="146.03" height="40"/><text class="tht" x="13" y="25">titles</text><rect class="t-bg" y="40" width="146.03" height="110"/><text class="tf pk" x="13" y="61">emp_no<tspan class="ty" x="133.03">integer</tspan></text><path class="i pk" transform="translate(76.35 48) scale(0.65)" d="M 7 14 A 2 2 0 0 1 5 12 A 2 2 0 0 1 7 10 A 2 2 0 0 1 9 12 A 2 2 0 0 1 7 14 M 12.65 10 C 11.83 7.67 9.61 6 7 6 A 6 6 0 0 0 1 12 A 6 6 0 0 0 7 18 C 9.61 18 11.83 16.33 12.65 14 H 17 V 18 H 21 V 14 H 23 V 10 H 12.65 Z"/><text class="tf" x="13" y="86">title<tspan class="ty" x="133.03">string</tspan></text><text class="tf" x="13" y="111">from_date<tspan class="ty" x="133.03">string</tspan></text><text class="tf" x="13" y="136">to_date<tspan class="ty" x="133.03">string</tspan></text></svg></g></g></svg>